PathFileType	4	(X/Y/Z)	C:/Users/beibeiliu/ov580/test_trc/User2\sequence.4_training_dense_left.trc
DataRate	CameraRate	NumFrames	NumMarkers	Units	OrigDataRate	OrigDataStartFrame	OrigNumFrames
120	120	13	19	mm	120	1	49
Frame#	Time	ThumbCMC			ThumbMCP			ThumbIP			ThumbTip			IndexMCP			IndexPIP			IndexTip			MiddleMCP			MiddlePIP			MiddleTip			RingMCP			RingPIP			RingTip			PinkyMCP			PinkyPIP			PinkyTip			BackHand1			BackHand2			BackHand3	
		X0	Y0	Z0	X1	Y1	Z1	X2	Y2	Z2	X3	Y3	Z3	X4	Y4	Z4	X5	Y5	Z5	X6	Y6	Z6	X7	Y7	Z7	X8	Y8	Z8	X9	Y9	Z9	X10	Y10	Z10	X11	Y11	Z11	X12	Y12	Z12	X13	Y13	Z13	X14	Y14	Z14	X15	Y15	Z15	X16	Y16	Z16	X17	Y17	Z17	X18	Y18	Z18	
0	0	-310.055	12.4541	27.6969	-297.246	21.278	2.60469	-278.484	38.7513	-20.8656	-267.919	50.2475	-44.1254	-357.479	49.4706	-36.892	-350.989	32.0617	-62.9947	-334.769	11.8968	-32.8203	-375.256	38.7532	-42.7286	-365.426	12.0328	-64.4655	-351.373	-4.9183	-30.0578	-388.825	19.7882	-44.5038	-376.004	-1.9669	-58.8532	-360.693	-13.1272	-26.5967	-403.584	0.034135	-34.024	-384.272	-18.3232	-48.6857	-364.78	-22.4951	-21.3977	-387.152	18.8327	21.8762	-375.741	-0.0869699	55.0554	-350.837	26.2784	36.5165	
1	0.00833333	-300.252	8.70827	25.4712	-282.921	14.5944	2.07984	-266.961	24.2859	-23.4616	-249.646	31.1843	-45.638	-337.527	46.5099	-43.5066	-335.619	21.4638	-64.9243	-324.871	4.70958	-32.5975	-356.66	37.3775	-49.6211	-352.127	8.81475	-64.833	-341.076	-5.99918	-26.1251	-378.181	20.3887	-45.0105	-363.404	-4.50755	-55.423	-350.537	-9.53516	-17.0614	-389.869	7.46619	-31.2313	-370.388	-21.1577	-41.4086	-356.318	-22.872	-14.3724	-373.805	26.7218	21.5746	-364.633	14.8989	52.3011	-334.493	31.1392	31.4552	
2	0.0166667	-285.216	2.13916	27.1107	-268.46	3.46173	4.66893	-245.632	11.4276	-25.8434	-233.602	10.3138	-42.3621	-312.364	34.3674	-53.4866	-318.638	9.68828	-67.0178	-308.575	-7.51674	-36.7735	-339.647	28.8818	-50.5501	-336.87	-4.47969	-62.0246	-325.309	-12.5668	-24.4527	-355.911	16.4713	-45.8871	-347.712	-16.0192	-48.1718	-338.898	-12.3262	-13.3825	-375.221	4.68216	-33.6113	-359.199	-25.9778	-35.1842	-345.568	-21.0448	-7.74854	-356.138	31.668	17.5011	-347.108	20.6175	48.9732	-316.976	29.1261	30.0331	
3	0.025	-269.535	-1.73109	23.8577	-255.148	-4.48466	3.48658	-233.612	-3.14253	-23.363	-218.669	-6.89289	-39.3265	-300.484	19.0569	-55.6077	-302.636	-10.6172	-66.8294	-302.584	-19.468	-34.6955	-322.992	15.592	-52.3404	-325.04	-21.1488	-57.8754	-316.141	-21.0992	-19.4341	-341.93	2.06537	-48.7244	-337.661	-28.825	-44.0202	-325.994	-22.6727	-13.2839	-357.679	-2.48493	-31.9706	-345.074	-33.9955	-30.9256	-334.604	-27.4005	-0.564632	-339.846	27.9711	10.5022	-336.727	21.6008	45.959	-301.133	25.8882	23.7468	
4	0.0333333	-265.803	-10.967	28.2251	-245.31	-13.3271	3.45265	-222.682	-15.8357	-20.2247	-207.198	-20.3366	-38.1321	-288.215	5.51335	-54.9216	-295.453	-23.2641	-67.8525	-290.454	-34.497	-32.7633	-313.078	-1.99477	-58.5698	-314.002	-36.9888	-53.4856	-306.576	-34.3324	-18.0995	-337.956	-12.7114	-46.0393	-327.999	-43.0215	-39.0992	-319.72	-29.034	-6.99283	-353.615	-18.9193	-31.7747	-337.011	-44.7326	-25.6162	-327.434	-33.9435	4.72225	-331.785	21.4804	8.69598	-322.703	17.7941	41.9177	-293.41	17.5472	21.2581	
5	0.0416667	-260.151	-15.6878	25.5914	-241.311	-21.2629	5.99051	-219.557	-24.7867	-21.8256	-201.417	-31.9218	-36.5944	-281.958	-8.52405	-53.7696	-292.948	-40.2057	-60.5366	-285.089	-45.3867	-28.0934	-311.388	-17.0315	-55.0135	-309.45	-50.6118	-50.5267	-302.898	-42.9041	-12.0559	-332.738	-26.7268	-43.6496	-324.766	-55.8765	-31.8291	-315.112	-40.9975	-3.19811	-345.752	-30.0805	-29.8174	-331.822	-55.9623	-19.7327	-323.267	-40.523	8.55662	-322.975	12.9688	9.60948	-319.877	12.2704	42.393	-284.813	10.673	20.8795	
6	0.05	-253.055	-20.024	28.778	-234.182	-28.8188	8.8287	-217.225	-38.3202	-14.1594	-201.977	-45.5975	-33.4177	-281.685	-29.2185	-53.0221	-282.325	-57.7129	-53.6898	-280.086	-55.8629	-17.428	-306.19	-35.6604	-50.3865	-302.067	-66.5513	-41.7465	-293.091	-52.5537	-2.13204	-321.525	-41.1467	-38.1672	-316.871	-69.298	-23.4696	-304.18	-46.1114	5.37576	-340.895	-46.4386	-23.2995	-323.134	-68.1005	-3.42324	-316.114	-45.8191	17.0616	-317.863	2.24343	8.42811	-317.581	8.28002	42.6283	-283.849	6.6268	21.7298	
7	0.0583333	-248.047	-22.7216	37.0084	-228.916	-35.4494	16.1465	-210.052	-47.6274	-13.9943	-201.195	-60.4675	-33.1128	-271.229	-44.7613	-46.7327	-271.218	-75.5599	-36.7611	-271.53	-64.4506	-5.2256	-294.533	-52.8105	-43.3206	-291.287	-81.1298	-27.3111	-280.053	-58.1108	7.32625	-311.217	-58.6807	-31.5939	-307.581	-81.6575	-9.30431	-298.67	-56.1092	13.5862	-329.668	-63.7143	-17.5886	-313.781	-77.9702	5.34869	-308.512	-48.3035	24.3405	-318.25	-6.7804	7.49303	-314.187	2.8766	38.8002	-276.733	1.76083	20.0803	
8	0.0666667	-242.9	-24.2856	36.2799	-224.436	-40.0203	15.5098	-214.205	-57.4284	-10.6821	-213.918	-73.936	-35.3979	-259.759	-50.5826	-40.3941	-259.346	-82.3517	-26.5491	-254.849	-63.6438	4.48549	-282.21	-58.5262	-37.4223	-279.189	-88.0288	-13.7665	-272.499	-62.3085	14.8005	-300.37	-70.0777	-25.4017	-293.568	-87.6924	-0.408531	-285.738	-55.8384	19.2573	-319.463	-69.0257	-12.4077	-302.114	-82.7442	13.0351	-299.986	-52.8064	31.1251	-309.534	-13.8546	4.61809	-311.07	-0.737434	39.8337	-273.963	-2.38815	21.1428	
9	0.075	-240.301	-17.4247	39.9128	-214.546	-34.5687	18.2176	-205.207	-54.598	-6.92997	-215.703	-73.8735	-26.0583	-246.497	-50.2861	-35.7372	-244.502	-78.8483	-23.7486	-245.295	-61.7648	10.4084	-266.39	-62.0027	-33.2737	-257.329	-87.0709	-9.35981	-258.819	-61.2342	20.4846	-281.257	-73.5384	-20.3572	-276.8	-89.1358	6.39955	-275.019	-56.2166	25.8148	-300.822	-71.539	-8.41265	-286.094	-81.753	22.4455	-287.528	-52.7625	34.9504	-307.034	-17.7531	4.98653	-308.619	-3.06182	34.8096	-270.752	1.23688	22.0465	
10	0.0833333	-235.232	-4.19344	40.1875	-210.334	-20.1552	23.1733	-198.317	-43.3249	-1.81602	-204.362	-65.5967	-21.2219	-235.158	-45.5347	-29.3926	-223.071	-68.7695	-14.072	-232.205	-48.5307	17.0946	-250.512	-61.1427	-26.6356	-237.82	-79.6255	-1.71507	-247.928	-54.0293	27.8779	-268.973	-73.9542	-11.1334	-255.288	-83.5265	15.6038	-260.906	-48.8085	33.4854	-282.329	-74.005	-1.13789	-266.215	-77.6758	30.1416	-274.325	-49.0395	41.3449	-300.809	-21.6294	6.30998	-305.714	-6.34944	33.9519	-272.37	5.45779	20.7199	
11	0.0916667	-240.149	11.8862	45.0213	-205.717	5.61968	28.6585	-187.369	-16.6589	6.58061	-189.58	-42.2329	-6.99947	-219.86	-31.9242	-22.9676	-203.401	-49.2555	-2.59559	-217.152	-32.2095	23.0225	-233.2	-49.7324	-17.9281	-215.724	-64.5197	11.5777	-232.69	-35.2941	36.9606	-246.094	-65.7411	-1.92104	-229.077	-67.8277	25.2223	-246.435	-40.4311	42.7227	-253.841	-71.4419	10.7034	-243.619	-65.955	38.241	-262.755	-39.2152	50.8564	-292.655	-25.7485	6.70512	-306.737	-10.0495	35.5611	-270.699	10.0485	20.0653	
12	0.1	-248.248	29.2262	39.8207	-216.818	29.4745	29.4306	-186.747	17.0238	11.0279	-176.37	-8.03694	-1.42807	-208.701	-11.2153	-17.6205	-187.512	-17.3825	3.96507	-207.309	-3.99029	28.0344	-213.165	-30.8769	-9.23748	-195.844	-34.6043	22.999	-221.055	-15.4709	44.5103	-221.702	-51.3651	9.16214	-207.852	-39.4888	37.5345	-235.81	-20.0654	48.1503	-233.379	-59.8216	21.9309	-223.13	-45.8485	49.6946	-250.628	-23.1886	56.3821	-277.52	-25.6308	10.9353	-301.649	-12.5674	38.9618	-277.005	12.9157	21.4706	
